<svg width="24" height="24" viewBox="0 0 24 24" fill="none" xmlns="http://www.w3.org/2000/svg">
<path d="M21.005 11.9246C21.0047 16.5215 17.5672 20.3921 13.0025 20.9354V14.7938H14.6158C14.842 14.795 15.0323 14.6245 15.0558 14.3996L15.23 13.0704C15.2421 12.9442 15.2024 12.8185 15.12 12.7221C15.0357 12.6224 14.9114 12.5653 14.7808 12.5663H13.0025V11.0079C13.0025 10.5017 13.4129 10.0913 13.9192 10.0913H14.8358C14.9541 10.0937 15.0684 10.0485 15.1529 9.96567C15.2374 9.88288 15.285 9.76956 15.285 9.65125V8.17542C15.2821 7.9458 15.1097 7.75379 14.8817 7.72625C14.8817 7.72625 14.2217 7.67126 13.4333 7.67126C11.4717 7.67126 10.39 8.83542 10.39 10.9529V12.5663H8.55668C8.30861 12.5663 8.10751 12.7674 8.10751 13.0154V14.3446C8.10751 14.5927 8.30861 14.7938 8.55668 14.7938H10.335V20.8621C5.59719 20.0221 2.33619 15.6335 2.89904 10.8548C3.46189 6.07612 7.65332 2.56526 12.4567 2.84906C17.26 3.13287 21.0088 7.11288 21.005 11.9246Z" fill="white"/>
</svg>
