<svg width="18" height="18" viewBox="0 0 18 18" fill="none" xmlns="http://www.w3.org/2000/svg">
<g clip-path="url(#clip0_3623_51133)">
<mask id="mask0_3623_51133" style="mask-type:luminance" maskUnits="userSpaceOnUse" x="0" y="0" width="18" height="18">
<path d="M18 0H0V18H18V0Z" fill="white"/>
</mask>
<g mask="url(#mask0_3623_51133)">
<mask id="mask1_3623_51133" style="mask-type:luminance" maskUnits="userSpaceOnUse" x="0" y="0" width="18" height="18">
<path d="M17.5 0.5H0.5V17.5H17.5V0.5Z" fill="white"/>
</mask>
<g mask="url(#mask1_3623_51133)">
<path d="M9 2.03066C11.2711 2.03066 11.54 2.04063 12.4332 2.08047C13.2633 2.11699 13.7115 2.25645 14.0104 2.37266C14.4055 2.52539 14.691 2.71133 14.9865 3.00684C15.2854 3.30566 15.468 3.58789 15.6207 3.98301C15.7369 4.28184 15.8764 4.7334 15.9129 5.56016C15.9527 6.45664 15.9627 6.72559 15.9627 8.99336C15.9627 11.2645 15.9527 11.5334 15.9129 12.4266C15.8764 13.2566 15.7369 13.7049 15.6207 14.0037C15.468 14.3988 15.282 14.6844 14.9865 14.9799C14.6877 15.2787 14.4055 15.4613 14.0104 15.6141C13.7115 15.7303 13.26 15.8697 12.4332 15.9063C11.5367 15.9461 11.2678 15.9561 9 15.9561C6.72891 15.9561 6.45996 15.9461 5.5668 15.9063C4.73672 15.8697 4.28848 15.7303 3.98965 15.6141C3.59453 15.4613 3.30898 15.2754 3.01348 14.9799C2.71465 14.6811 2.53203 14.3988 2.3793 14.0037C2.26309 13.7049 2.12363 13.2533 2.08711 12.4266C2.04727 11.5301 2.0373 11.2611 2.0373 8.99336C2.0373 6.72227 2.04727 6.45332 2.08711 5.56016C2.12363 4.73008 2.26309 4.28184 2.3793 3.98301C2.53203 3.58789 2.71797 3.30234 3.01348 3.00684C3.3123 2.70801 3.59453 2.52539 3.98965 2.37266C4.28848 2.25645 4.74004 2.11699 5.5668 2.08047C6.45996 2.04063 6.72891 2.03066 9 2.03066ZM9 0.5C6.69238 0.5 6.40352 0.509961 5.49707 0.549805C4.59395 0.589648 3.97305 0.735742 3.43516 0.944922C2.87402 1.16406 2.39922 1.45293 1.92773 1.92773C1.45293 2.39922 1.16406 2.87402 0.944922 3.43184C0.735742 3.97305 0.589648 4.59063 0.549805 5.49375C0.509961 6.40352 0.5 6.69238 0.5 9C0.5 11.3076 0.509961 11.5965 0.549805 12.5029C0.589648 13.4061 0.735742 14.027 0.944922 14.5648C1.16406 15.126 1.45293 15.6008 1.92773 16.0723C2.39922 16.5438 2.87402 16.8359 3.43184 17.0518C3.97305 17.2609 4.59062 17.407 5.49375 17.4469C6.4002 17.4867 6.68906 17.4967 8.99668 17.4967C11.3043 17.4967 11.5932 17.4867 12.4996 17.4469C13.4027 17.407 14.0236 17.2609 14.5615 17.0518C15.1193 16.8359 15.5941 16.5438 16.0656 16.0723C16.5371 15.6008 16.8293 15.126 17.0451 14.5682C17.2543 14.027 17.4004 13.4094 17.4402 12.5063C17.4801 11.5998 17.49 11.3109 17.49 9.00332C17.49 6.6957 17.4801 6.40684 17.4402 5.50039C17.4004 4.59727 17.2543 3.97637 17.0451 3.43848C16.8359 2.87402 16.5471 2.39922 16.0723 1.92773C15.6008 1.45625 15.126 1.16406 14.5682 0.948242C14.027 0.739063 13.4094 0.592969 12.5063 0.553125C11.5965 0.509961 11.3076 0.5 9 0.5Z" fill="white"/>
<path d="M8.99902 4.63281C6.58848 4.63281 4.63281 6.58848 4.63281 8.99902C4.63281 11.4096 6.58848 13.3652 8.99902 13.3652C11.4096 13.3652 13.3652 11.4096 13.3652 8.99902C13.3652 6.58848 11.4096 4.63281 8.99902 4.63281ZM8.99902 11.8313C7.43516 11.8313 6.1668 10.5629 6.1668 8.99902C6.1668 7.43516 7.43516 6.1668 8.99902 6.1668C10.5629 6.1668 11.8313 7.43516 11.8313 8.99902C11.8313 10.5629 10.5629 11.8313 8.99902 11.8313Z" fill="white"/>
<path d="M14.5582 4.46074C14.5582 5.0252 14.1 5.48008 13.5389 5.48008C12.9744 5.48008 12.5195 5.02188 12.5195 4.46074C12.5195 3.89629 12.9777 3.44141 13.5389 3.44141C14.1 3.44141 14.5582 3.89961 14.5582 4.46074Z" fill="white"/>
</g>
</g>
</g>
<defs>
<clipPath id="clip0_3623_51133">
<rect width="18" height="18" fill="white"/>
</clipPath>
</defs>
</svg>
