<svg width="24" height="24" viewBox="0 0 24 24" fill="none" xmlns="http://www.w3.org/2000/svg">
<path fill-rule="evenodd" clip-rule="evenodd" d="M7.92588 8.33337C6.97278 8.34136 6.01948 8.33962 5.06632 8.33431C4.797 8.33272 4.66357 8.42569 4.66406 8.73221C4.67003 12.1501 4.66771 15.5681 4.66842 18.9859C4.66849 19.1161 4.64855 19.2591 4.80879 19.3183C4.8149 19.3392 8.17505 19.3379 8.1841 19.3172C8.36098 19.2483 8.32532 19.0879 8.32539 18.9493C8.32694 15.5555 8.3242 12.1616 8.33073 8.7678C8.33122 8.45983 8.2258 8.33083 7.92588 8.33337Z" fill="white"/>
<path fill-rule="evenodd" clip-rule="evenodd" d="M6.49736 3.75C5.48491 3.75 4.66406 4.57084 4.66406 5.5833C4.66406 6.59589 5.48491 7.41667 6.49736 7.41667C7.50989 7.41667 8.33073 6.59589 8.33073 5.5833C8.33073 4.57084 7.50989 3.75 6.49736 3.75Z" fill="white"/>
<path fill-rule="evenodd" clip-rule="evenodd" d="M20.1998 18.8065C20.202 17.0545 20.2109 15.3025 20.1967 13.5507C20.1904 12.7834 20.1629 12.014 20.0016 11.2588C19.7373 10.0206 19.1424 9.05388 17.9607 8.6031C17.1723 8.30238 16.348 8.28303 15.5247 8.3996C14.8331 8.49753 14.196 8.76095 13.6156 9.2506C13.6156 9.07245 13.615 8.95431 13.6158 8.83631C13.6175 8.57131 13.4942 8.45153 13.2402 8.45274C12.3373 8.45695 11.4344 8.45588 10.5315 8.45345C10.283 8.45274 10.1637 8.55538 10.1641 8.83474C10.1688 12.1965 10.1671 15.5583 10.1672 18.9201C10.1672 19.049 10.1502 19.1862 10.2994 19.2497C10.3152 19.2705 13.5748 19.2782 13.5747 19.257C13.7885 19.161 13.7227 18.9583 13.7231 18.7933C13.7261 17.1352 13.7161 15.4771 13.725 13.819C13.7278 13.3005 13.7469 12.7767 13.9709 12.294C14.2362 11.7219 14.7854 11.474 15.559 11.5755C16.0912 11.6452 16.4309 12.0055 16.5366 12.6333C16.5758 12.8652 16.6051 13.1024 16.6064 13.3373C16.6168 15.1612 16.6182 16.985 16.6258 18.8089C16.6265 18.9773 16.576 19.1762 16.7929 19.2608C16.7855 19.2847 20.0676 19.2702 20.0685 19.2471C20.2451 19.1441 20.1996 18.9645 20.1998 18.8065Z" fill="white"/>
</svg>
