<svg width="24" height="24" viewBox="0 0 24 24" fill="none" xmlns="http://www.w3.org/2000/svg">
<path d="M7.6407 6.29688C10.756 6.29688 13.2812 8.83973 13.2812 11.9763C13.2812 15.1128 10.7558 17.6555 7.6407 17.6555C4.52561 17.6555 2 15.1128 2 11.9763C2 8.83973 4.52542 6.29688 7.6407 6.29688ZM16.6485 6.62956C18.2061 6.62956 19.4688 9.02313 19.4688 11.9763H19.469C19.469 14.9287 18.2063 17.323 16.6487 17.323C15.091 17.323 13.8283 14.9287 13.8283 11.9763C13.8283 9.0239 15.0908 6.62956 16.6485 6.62956ZM21.0081 7.18646C21.5558 7.18646 22 9.3309 22 11.9763C22 14.6209 21.556 16.7661 21.0081 16.7661C20.4602 16.7661 20.0163 14.6215 20.0163 11.9763C20.0163 9.33109 20.4604 7.18646 21.0081 7.18646Z" fill="white"/>
</svg>
