<svg width="24" height="24" viewBox="0 0 24 24" fill="none" xmlns="http://www.w3.org/2000/svg">
<path d="M20.6239 7.65215C20.4169 6.87267 19.8069 6.25877 19.0325 6.05044C17.6288 5.67188 12 5.67188 12 5.67188C12 5.67188 6.37127 5.67188 4.96752 6.05044C4.19308 6.25881 3.58314 6.87267 3.37613 7.65215C3 9.065 3 12.0128 3 12.0128C3 12.0128 3 14.9606 3.37613 16.3734C3.58314 17.1529 4.19308 17.7412 4.96752 17.9495C6.37127 18.3281 12 18.3281 12 18.3281C12 18.3281 17.6287 18.3281 19.0325 17.9495C19.8069 17.7412 20.4169 17.1529 20.6239 16.3734C21 14.9606 21 12.0128 21 12.0128C21 12.0128 21 9.065 20.6239 7.65215ZM10.1591 14.6891V9.33642L14.8636 12.0128L10.1591 14.6891Z" fill="white"/>
</svg>
